<mxfile host="Electron" agent="Mozilla/5.0 (Windows NT 10.0; Win64; x64) AppleWebKit/537.36 (KHTML, like Gecko) draw.io/24.7.8 Chrome/128.0.6613.36 Electron/32.0.1 Safari/537.36" version="24.7.8">
  <diagram name="Trang-1" id="M-SAd9LkpbupXPq_AiEO">
    <mxGraphModel dx="2555" dy="1018" grid="1" gridSize="10" guides="1" tooltips="1" connect="1" arrows="1" fold="1" page="1" pageScale="1" pageWidth="827" pageHeight="1169" math="0" shadow="0">
      <root>
        <mxCell id="0" />
        <mxCell id="1" parent="0" />
        <mxCell id="7vzMjG-QyfqPNBVxQbre-7" value="Admin" style="shape=umlActor;verticalLabelPosition=bottom;verticalAlign=top;html=1;outlineConnect=0;" vertex="1" parent="1">
          <mxGeometry x="40" y="210" width="30" height="60" as="geometry" />
        </mxCell>
        <mxCell id="7vzMjG-QyfqPNBVxQbre-9" value="" style="swimlane;startSize=0;" vertex="1" parent="1">
          <mxGeometry x="110" y="70" width="450" height="520" as="geometry" />
        </mxCell>
        <mxCell id="7vzMjG-QyfqPNBVxQbre-1" value="Users" style="ellipse;whiteSpace=wrap;html=1;" vertex="1" parent="7vzMjG-QyfqPNBVxQbre-9">
          <mxGeometry x="50" y="10" width="120" height="80" as="geometry" />
        </mxCell>
        <mxCell id="7vzMjG-QyfqPNBVxQbre-2" value="Products" style="ellipse;whiteSpace=wrap;html=1;" vertex="1" parent="7vzMjG-QyfqPNBVxQbre-9">
          <mxGeometry x="60" y="110" width="120" height="80" as="geometry" />
        </mxCell>
        <mxCell id="7vzMjG-QyfqPNBVxQbre-3" value="Orders" style="ellipse;whiteSpace=wrap;html=1;" vertex="1" parent="7vzMjG-QyfqPNBVxQbre-9">
          <mxGeometry x="50" y="420" width="120" height="80" as="geometry" />
        </mxCell>
        <mxCell id="7vzMjG-QyfqPNBVxQbre-6" value="Contact" style="ellipse;whiteSpace=wrap;html=1;" vertex="1" parent="7vzMjG-QyfqPNBVxQbre-9">
          <mxGeometry x="60" y="210" width="120" height="80" as="geometry" />
        </mxCell>
        <mxCell id="7vzMjG-QyfqPNBVxQbre-14" value="Login/Signup" style="ellipse;whiteSpace=wrap;html=1;" vertex="1" parent="7vzMjG-QyfqPNBVxQbre-9">
          <mxGeometry x="70" y="310" width="120" height="80" as="geometry" />
        </mxCell>
        <mxCell id="7vzMjG-QyfqPNBVxQbre-10" value="" style="endArrow=none;html=1;rounded=0;entryX=0;entryY=0.5;entryDx=0;entryDy=0;exitX=1;exitY=0.3333333333333333;exitDx=0;exitDy=0;exitPerimeter=0;" edge="1" parent="1" source="7vzMjG-QyfqPNBVxQbre-7" target="7vzMjG-QyfqPNBVxQbre-1">
          <mxGeometry width="50" height="50" relative="1" as="geometry">
            <mxPoint x="30" y="170" as="sourcePoint" />
            <mxPoint x="80" y="120" as="targetPoint" />
          </mxGeometry>
        </mxCell>
        <mxCell id="7vzMjG-QyfqPNBVxQbre-11" value="" style="endArrow=none;html=1;rounded=0;entryX=0;entryY=0.5;entryDx=0;entryDy=0;exitX=1;exitY=0.3333333333333333;exitDx=0;exitDy=0;exitPerimeter=0;" edge="1" parent="1" source="7vzMjG-QyfqPNBVxQbre-7" target="7vzMjG-QyfqPNBVxQbre-2">
          <mxGeometry width="50" height="50" relative="1" as="geometry">
            <mxPoint x="30" y="380" as="sourcePoint" />
            <mxPoint x="80" y="330" as="targetPoint" />
          </mxGeometry>
        </mxCell>
        <mxCell id="7vzMjG-QyfqPNBVxQbre-12" value="" style="endArrow=none;html=1;rounded=0;exitX=0.025;exitY=0.338;exitDx=0;exitDy=0;exitPerimeter=0;" edge="1" parent="1" source="7vzMjG-QyfqPNBVxQbre-6">
          <mxGeometry width="50" height="50" relative="1" as="geometry">
            <mxPoint x="30" y="400" as="sourcePoint" />
            <mxPoint x="70" y="230" as="targetPoint" />
          </mxGeometry>
        </mxCell>
        <mxCell id="7vzMjG-QyfqPNBVxQbre-13" value="" style="endArrow=none;html=1;rounded=0;exitX=0.092;exitY=0.15;exitDx=0;exitDy=0;exitPerimeter=0;" edge="1" parent="1" source="7vzMjG-QyfqPNBVxQbre-3">
          <mxGeometry width="50" height="50" relative="1" as="geometry">
            <mxPoint x="50" y="390" as="sourcePoint" />
            <mxPoint x="70" y="230" as="targetPoint" />
          </mxGeometry>
        </mxCell>
        <mxCell id="7vzMjG-QyfqPNBVxQbre-15" value="Customer" style="shape=umlActor;verticalLabelPosition=bottom;verticalAlign=top;html=1;outlineConnect=0;" vertex="1" parent="1">
          <mxGeometry x="590" y="310" width="30" height="60" as="geometry" />
        </mxCell>
        <mxCell id="7vzMjG-QyfqPNBVxQbre-19" value="" style="endArrow=none;html=1;rounded=0;entryX=1;entryY=0.3333333333333333;entryDx=0;entryDy=0;entryPerimeter=0;exitX=0;exitY=0;exitDx=0;exitDy=0;" edge="1" parent="1" source="7vzMjG-QyfqPNBVxQbre-14" target="7vzMjG-QyfqPNBVxQbre-7">
          <mxGeometry width="50" height="50" relative="1" as="geometry">
            <mxPoint x="-20" y="380" as="sourcePoint" />
            <mxPoint x="30" y="330" as="targetPoint" />
          </mxGeometry>
        </mxCell>
        <mxCell id="7vzMjG-QyfqPNBVxQbre-20" value="" style="endArrow=none;html=1;rounded=0;exitX=1;exitY=0.5;exitDx=0;exitDy=0;entryX=0.5;entryY=0.5;entryDx=0;entryDy=0;entryPerimeter=0;" edge="1" parent="1" source="7vzMjG-QyfqPNBVxQbre-14" target="7vzMjG-QyfqPNBVxQbre-15">
          <mxGeometry width="50" height="50" relative="1" as="geometry">
            <mxPoint x="710" y="280" as="sourcePoint" />
            <mxPoint x="760" y="230" as="targetPoint" />
          </mxGeometry>
        </mxCell>
        <mxCell id="7vzMjG-QyfqPNBVxQbre-21" value="" style="endArrow=none;html=1;rounded=0;exitX=1.004;exitY=0.299;exitDx=0;exitDy=0;exitPerimeter=0;entryX=0.5;entryY=0.5;entryDx=0;entryDy=0;entryPerimeter=0;" edge="1" parent="1" source="7vzMjG-QyfqPNBVxQbre-3" target="7vzMjG-QyfqPNBVxQbre-15">
          <mxGeometry width="50" height="50" relative="1" as="geometry">
            <mxPoint x="660" y="430" as="sourcePoint" />
            <mxPoint x="710" y="380" as="targetPoint" />
          </mxGeometry>
        </mxCell>
        <mxCell id="7vzMjG-QyfqPNBVxQbre-26" value="Customer" style="rounded=0;whiteSpace=wrap;html=1;" vertex="1" parent="1">
          <mxGeometry x="130" y="820" width="120" height="60" as="geometry" />
        </mxCell>
        <mxCell id="7vzMjG-QyfqPNBVxQbre-27" value="Tên đăng nhập" style="ellipse;whiteSpace=wrap;html=1;" vertex="1" parent="1">
          <mxGeometry x="-50" y="640" width="120" height="80" as="geometry" />
        </mxCell>
        <mxCell id="7vzMjG-QyfqPNBVxQbre-28" value="Email" style="ellipse;whiteSpace=wrap;html=1;" vertex="1" parent="1">
          <mxGeometry x="-130" y="830" width="120" height="80" as="geometry" />
        </mxCell>
        <mxCell id="7vzMjG-QyfqPNBVxQbre-29" value="Địa chỉ&amp;nbsp;" style="ellipse;whiteSpace=wrap;html=1;" vertex="1" parent="1">
          <mxGeometry x="-140" y="720" width="120" height="80" as="geometry" />
        </mxCell>
        <mxCell id="7vzMjG-QyfqPNBVxQbre-30" value="Số điện thoại" style="ellipse;whiteSpace=wrap;html=1;" vertex="1" parent="1">
          <mxGeometry x="-50" y="930" width="120" height="80" as="geometry" />
        </mxCell>
        <mxCell id="7vzMjG-QyfqPNBVxQbre-31" value="" style="endArrow=none;html=1;rounded=0;entryX=1;entryY=1;entryDx=0;entryDy=0;exitX=0;exitY=0.25;exitDx=0;exitDy=0;" edge="1" parent="1" source="7vzMjG-QyfqPNBVxQbre-26" target="7vzMjG-QyfqPNBVxQbre-27">
          <mxGeometry width="50" height="50" relative="1" as="geometry">
            <mxPoint x="120" y="1000" as="sourcePoint" />
            <mxPoint x="170" y="950" as="targetPoint" />
          </mxGeometry>
        </mxCell>
        <mxCell id="7vzMjG-QyfqPNBVxQbre-32" value="" style="endArrow=none;html=1;rounded=0;entryX=0.936;entryY=0.733;entryDx=0;entryDy=0;entryPerimeter=0;exitX=0;exitY=0.25;exitDx=0;exitDy=0;" edge="1" parent="1" source="7vzMjG-QyfqPNBVxQbre-26" target="7vzMjG-QyfqPNBVxQbre-29">
          <mxGeometry width="50" height="50" relative="1" as="geometry">
            <mxPoint x="180" y="1000" as="sourcePoint" />
            <mxPoint x="230" y="950" as="targetPoint" />
          </mxGeometry>
        </mxCell>
        <mxCell id="7vzMjG-QyfqPNBVxQbre-33" value="" style="endArrow=none;html=1;rounded=0;entryX=1;entryY=0.5;entryDx=0;entryDy=0;exitX=0;exitY=0.25;exitDx=0;exitDy=0;" edge="1" parent="1" source="7vzMjG-QyfqPNBVxQbre-26" target="7vzMjG-QyfqPNBVxQbre-28">
          <mxGeometry width="50" height="50" relative="1" as="geometry">
            <mxPoint x="150" y="1010" as="sourcePoint" />
            <mxPoint x="200" y="960" as="targetPoint" />
          </mxGeometry>
        </mxCell>
        <mxCell id="7vzMjG-QyfqPNBVxQbre-34" value="" style="endArrow=none;html=1;rounded=0;entryX=0;entryY=0.25;entryDx=0;entryDy=0;exitX=1;exitY=0;exitDx=0;exitDy=0;" edge="1" parent="1" source="7vzMjG-QyfqPNBVxQbre-30" target="7vzMjG-QyfqPNBVxQbre-26">
          <mxGeometry width="50" height="50" relative="1" as="geometry">
            <mxPoint x="210" y="970" as="sourcePoint" />
            <mxPoint x="260" y="920" as="targetPoint" />
          </mxGeometry>
        </mxCell>
        <mxCell id="7vzMjG-QyfqPNBVxQbre-36" value="" style="endArrow=none;html=1;rounded=0;entryX=0;entryY=0.5;entryDx=0;entryDy=0;exitX=1;exitY=0.5;exitDx=0;exitDy=0;" edge="1" parent="1" source="7vzMjG-QyfqPNBVxQbre-26" target="7vzMjG-QyfqPNBVxQbre-37">
          <mxGeometry width="50" height="50" relative="1" as="geometry">
            <mxPoint x="210" y="1050" as="sourcePoint" />
            <mxPoint x="429.9200000000001" y="852.8" as="targetPoint" />
          </mxGeometry>
        </mxCell>
        <mxCell id="7vzMjG-QyfqPNBVxQbre-37" value="Đặt hàng" style="rhombus;whiteSpace=wrap;html=1;" vertex="1" parent="1">
          <mxGeometry x="440" y="810" width="80" height="80" as="geometry" />
        </mxCell>
        <mxCell id="7vzMjG-QyfqPNBVxQbre-39" value="1" style="text;html=1;align=center;verticalAlign=middle;resizable=0;points=[];autosize=1;strokeColor=none;fillColor=none;" vertex="1" parent="1">
          <mxGeometry x="255" y="818" width="30" height="30" as="geometry" />
        </mxCell>
        <mxCell id="7vzMjG-QyfqPNBVxQbre-40" value="n" style="text;html=1;align=center;verticalAlign=middle;resizable=0;points=[];autosize=1;strokeColor=none;fillColor=none;" vertex="1" parent="1">
          <mxGeometry x="405" y="818" width="30" height="30" as="geometry" />
        </mxCell>
        <mxCell id="7vzMjG-QyfqPNBVxQbre-41" value="Đăng nhập và đặt hàng" style="text;html=1;align=center;verticalAlign=middle;resizable=0;points=[];autosize=1;strokeColor=none;fillColor=none;" vertex="1" parent="1">
          <mxGeometry x="115" y="890" width="150" height="30" as="geometry" />
        </mxCell>
        <mxCell id="7vzMjG-QyfqPNBVxQbre-57" value="Admin" style="rounded=0;whiteSpace=wrap;html=1;" vertex="1" parent="1">
          <mxGeometry x="125" y="1250" width="120" height="60" as="geometry" />
        </mxCell>
        <mxCell id="7vzMjG-QyfqPNBVxQbre-67" value="Quản lý" style="rhombus;whiteSpace=wrap;html=1;" vertex="1" parent="1">
          <mxGeometry x="450" y="1240" width="80" height="80" as="geometry" />
        </mxCell>
        <mxCell id="7vzMjG-QyfqPNBVxQbre-68" value="" style="endArrow=none;html=1;rounded=0;entryX=0;entryY=0.5;entryDx=0;entryDy=0;exitX=1;exitY=0.5;exitDx=0;exitDy=0;" edge="1" parent="1" source="7vzMjG-QyfqPNBVxQbre-57" target="7vzMjG-QyfqPNBVxQbre-67">
          <mxGeometry width="50" height="50" relative="1" as="geometry">
            <mxPoint x="310" y="1200" as="sourcePoint" />
            <mxPoint x="360" y="1150" as="targetPoint" />
          </mxGeometry>
        </mxCell>
        <mxCell id="7vzMjG-QyfqPNBVxQbre-69" value="1" style="text;html=1;align=center;verticalAlign=middle;resizable=0;points=[];autosize=1;strokeColor=none;fillColor=none;" vertex="1" parent="1">
          <mxGeometry x="255" y="1250" width="30" height="30" as="geometry" />
        </mxCell>
        <mxCell id="7vzMjG-QyfqPNBVxQbre-70" value="n" style="text;html=1;align=center;verticalAlign=middle;resizable=0;points=[];autosize=1;strokeColor=none;fillColor=none;" vertex="1" parent="1">
          <mxGeometry x="650" y="1250" width="30" height="30" as="geometry" />
        </mxCell>
        <mxCell id="7vzMjG-QyfqPNBVxQbre-73" value="Products" style="rounded=0;whiteSpace=wrap;html=1;" vertex="1" parent="1">
          <mxGeometry x="435" y="1510" width="120" height="60" as="geometry" />
        </mxCell>
        <mxCell id="7vzMjG-QyfqPNBVxQbre-74" value="User" style="rounded=0;whiteSpace=wrap;html=1;" vertex="1" parent="1">
          <mxGeometry x="690" y="1250" width="120" height="60" as="geometry" />
        </mxCell>
        <mxCell id="7vzMjG-QyfqPNBVxQbre-75" value="Tên đăng nhập" style="ellipse;whiteSpace=wrap;html=1;" vertex="1" parent="1">
          <mxGeometry x="980" y="1180" width="120" height="80" as="geometry" />
        </mxCell>
        <mxCell id="7vzMjG-QyfqPNBVxQbre-76" value="Email" style="ellipse;whiteSpace=wrap;html=1;" vertex="1" parent="1">
          <mxGeometry x="980" y="1280" width="120" height="80" as="geometry" />
        </mxCell>
        <mxCell id="7vzMjG-QyfqPNBVxQbre-77" value="Địa chỉ&amp;nbsp;" style="ellipse;whiteSpace=wrap;html=1;" vertex="1" parent="1">
          <mxGeometry x="910" y="1380" width="120" height="80" as="geometry" />
        </mxCell>
        <mxCell id="7vzMjG-QyfqPNBVxQbre-78" value="Số điện thoại" style="ellipse;whiteSpace=wrap;html=1;" vertex="1" parent="1">
          <mxGeometry x="880" y="1100" width="120" height="80" as="geometry" />
        </mxCell>
        <mxCell id="7vzMjG-QyfqPNBVxQbre-84" value="" style="endArrow=none;html=1;rounded=0;entryX=0;entryY=1;entryDx=0;entryDy=0;exitX=1;exitY=0.25;exitDx=0;exitDy=0;" edge="1" parent="1" source="7vzMjG-QyfqPNBVxQbre-74" target="7vzMjG-QyfqPNBVxQbre-78">
          <mxGeometry width="50" height="50" relative="1" as="geometry">
            <mxPoint x="670" y="1450" as="sourcePoint" />
            <mxPoint x="720" y="1400" as="targetPoint" />
          </mxGeometry>
        </mxCell>
        <mxCell id="7vzMjG-QyfqPNBVxQbre-85" value="" style="endArrow=none;html=1;rounded=0;entryX=0;entryY=0.5;entryDx=0;entryDy=0;exitX=1;exitY=0.25;exitDx=0;exitDy=0;" edge="1" parent="1" source="7vzMjG-QyfqPNBVxQbre-74" target="7vzMjG-QyfqPNBVxQbre-75">
          <mxGeometry width="50" height="50" relative="1" as="geometry">
            <mxPoint x="780" y="1440" as="sourcePoint" />
            <mxPoint x="830" y="1390" as="targetPoint" />
          </mxGeometry>
        </mxCell>
        <mxCell id="7vzMjG-QyfqPNBVxQbre-86" value="" style="endArrow=none;html=1;rounded=0;entryX=0;entryY=0.5;entryDx=0;entryDy=0;exitX=1;exitY=0.5;exitDx=0;exitDy=0;" edge="1" parent="1" source="7vzMjG-QyfqPNBVxQbre-74" target="7vzMjG-QyfqPNBVxQbre-76">
          <mxGeometry width="50" height="50" relative="1" as="geometry">
            <mxPoint x="730" y="1440" as="sourcePoint" />
            <mxPoint x="780" y="1390" as="targetPoint" />
          </mxGeometry>
        </mxCell>
        <mxCell id="7vzMjG-QyfqPNBVxQbre-87" value="" style="endArrow=none;html=1;rounded=0;entryX=0;entryY=0.375;entryDx=0;entryDy=0;entryPerimeter=0;exitX=1;exitY=0.5;exitDx=0;exitDy=0;" edge="1" parent="1" source="7vzMjG-QyfqPNBVxQbre-74" target="7vzMjG-QyfqPNBVxQbre-77">
          <mxGeometry width="50" height="50" relative="1" as="geometry">
            <mxPoint x="730" y="1440" as="sourcePoint" />
            <mxPoint x="780" y="1390" as="targetPoint" />
          </mxGeometry>
        </mxCell>
        <mxCell id="7vzMjG-QyfqPNBVxQbre-88" value="" style="endArrow=none;html=1;rounded=0;entryX=0;entryY=0.5;entryDx=0;entryDy=0;exitX=1;exitY=0.5;exitDx=0;exitDy=0;" edge="1" parent="1" source="7vzMjG-QyfqPNBVxQbre-67" target="7vzMjG-QyfqPNBVxQbre-74">
          <mxGeometry width="50" height="50" relative="1" as="geometry">
            <mxPoint x="480" y="1400" as="sourcePoint" />
            <mxPoint x="530" y="1350" as="targetPoint" />
          </mxGeometry>
        </mxCell>
        <mxCell id="7vzMjG-QyfqPNBVxQbre-89" value="Tên sản phẩm&amp;nbsp;" style="ellipse;whiteSpace=wrap;html=1;" vertex="1" parent="1">
          <mxGeometry x="300" y="1650" width="120" height="80" as="geometry" />
        </mxCell>
        <mxCell id="7vzMjG-QyfqPNBVxQbre-90" value="Giá" style="ellipse;whiteSpace=wrap;html=1;" vertex="1" parent="1">
          <mxGeometry x="570" y="1680" width="120" height="80" as="geometry" />
        </mxCell>
        <mxCell id="7vzMjG-QyfqPNBVxQbre-91" value="Mô tả" style="ellipse;whiteSpace=wrap;html=1;" vertex="1" parent="1">
          <mxGeometry x="430" y="1730" width="120" height="80" as="geometry" />
        </mxCell>
        <mxCell id="7vzMjG-QyfqPNBVxQbre-92" value="" style="endArrow=none;html=1;rounded=0;entryX=0.5;entryY=1;entryDx=0;entryDy=0;exitX=1;exitY=0;exitDx=0;exitDy=0;" edge="1" parent="1" source="7vzMjG-QyfqPNBVxQbre-89" target="7vzMjG-QyfqPNBVxQbre-73">
          <mxGeometry width="50" height="50" relative="1" as="geometry">
            <mxPoint x="310" y="1640" as="sourcePoint" />
            <mxPoint x="360" y="1590" as="targetPoint" />
          </mxGeometry>
        </mxCell>
        <mxCell id="7vzMjG-QyfqPNBVxQbre-93" value="" style="endArrow=none;html=1;rounded=0;entryX=0.5;entryY=1;entryDx=0;entryDy=0;exitX=0.5;exitY=0;exitDx=0;exitDy=0;" edge="1" parent="1" source="7vzMjG-QyfqPNBVxQbre-91" target="7vzMjG-QyfqPNBVxQbre-73">
          <mxGeometry width="50" height="50" relative="1" as="geometry">
            <mxPoint x="470" y="1680" as="sourcePoint" />
            <mxPoint x="520" y="1630" as="targetPoint" />
          </mxGeometry>
        </mxCell>
        <mxCell id="7vzMjG-QyfqPNBVxQbre-94" value="" style="endArrow=none;html=1;rounded=0;entryX=0.5;entryY=1;entryDx=0;entryDy=0;exitX=0.5;exitY=0;exitDx=0;exitDy=0;" edge="1" parent="1" source="7vzMjG-QyfqPNBVxQbre-90" target="7vzMjG-QyfqPNBVxQbre-73">
          <mxGeometry width="50" height="50" relative="1" as="geometry">
            <mxPoint x="530" y="1640" as="sourcePoint" />
            <mxPoint x="580" y="1590" as="targetPoint" />
          </mxGeometry>
        </mxCell>
        <mxCell id="7vzMjG-QyfqPNBVxQbre-95" value="" style="endArrow=none;html=1;rounded=0;entryX=0.5;entryY=1;entryDx=0;entryDy=0;exitX=0.5;exitY=0;exitDx=0;exitDy=0;" edge="1" parent="1" source="7vzMjG-QyfqPNBVxQbre-73" target="7vzMjG-QyfqPNBVxQbre-67">
          <mxGeometry width="50" height="50" relative="1" as="geometry">
            <mxPoint x="420" y="1460" as="sourcePoint" />
            <mxPoint x="470" y="1410" as="targetPoint" />
          </mxGeometry>
        </mxCell>
        <mxCell id="7vzMjG-QyfqPNBVxQbre-96" value="n" style="text;html=1;align=center;verticalAlign=middle;resizable=0;points=[];autosize=1;strokeColor=none;fillColor=none;" vertex="1" parent="1">
          <mxGeometry x="510" y="1480" width="30" height="30" as="geometry" />
        </mxCell>
        <mxCell id="7vzMjG-QyfqPNBVxQbre-97" value="1" style="text;html=1;align=center;verticalAlign=middle;resizable=0;points=[];autosize=1;strokeColor=none;fillColor=none;" vertex="1" parent="1">
          <mxGeometry x="495" y="1308" width="30" height="30" as="geometry" />
        </mxCell>
        <mxCell id="7vzMjG-QyfqPNBVxQbre-98" value="1" style="text;html=1;align=center;verticalAlign=middle;resizable=0;points=[];autosize=1;strokeColor=none;fillColor=none;" vertex="1" parent="1">
          <mxGeometry x="525" y="1258" width="30" height="30" as="geometry" />
        </mxCell>
        <mxCell id="7vzMjG-QyfqPNBVxQbre-99" value="n" style="text;html=1;align=center;verticalAlign=middle;resizable=0;points=[];autosize=1;strokeColor=none;fillColor=none;" vertex="1" parent="1">
          <mxGeometry x="425" y="1258" width="30" height="30" as="geometry" />
        </mxCell>
        <mxCell id="7vzMjG-QyfqPNBVxQbre-100" value="Orders" style="rounded=0;whiteSpace=wrap;html=1;" vertex="1" parent="1">
          <mxGeometry x="425" y="1020" width="120" height="60" as="geometry" />
        </mxCell>
        <mxCell id="7vzMjG-QyfqPNBVxQbre-101" value="" style="endArrow=none;html=1;rounded=0;entryX=0.5;entryY=1;entryDx=0;entryDy=0;exitX=0.5;exitY=0;exitDx=0;exitDy=0;" edge="1" parent="1" source="7vzMjG-QyfqPNBVxQbre-100" target="7vzMjG-QyfqPNBVxQbre-37">
          <mxGeometry width="50" height="50" relative="1" as="geometry">
            <mxPoint x="280" y="1020" as="sourcePoint" />
            <mxPoint x="330" y="970" as="targetPoint" />
          </mxGeometry>
        </mxCell>
        <mxCell id="7vzMjG-QyfqPNBVxQbre-102" value="" style="endArrow=none;html=1;rounded=0;exitX=0.5;exitY=0;exitDx=0;exitDy=0;entryX=0.5;entryY=1;entryDx=0;entryDy=0;" edge="1" parent="1" source="7vzMjG-QyfqPNBVxQbre-57" target="7vzMjG-QyfqPNBVxQbre-103">
          <mxGeometry width="50" height="50" relative="1" as="geometry">
            <mxPoint x="200" y="1120" as="sourcePoint" />
            <mxPoint x="190" y="1110" as="targetPoint" />
          </mxGeometry>
        </mxCell>
        <mxCell id="7vzMjG-QyfqPNBVxQbre-103" value="Giao thành công/ Đang giao" style="rhombus;whiteSpace=wrap;html=1;" vertex="1" parent="1">
          <mxGeometry x="150" y="1010" width="80" height="80" as="geometry" />
        </mxCell>
        <mxCell id="7vzMjG-QyfqPNBVxQbre-104" value="Đăng nhập và Quản lý hệ thống" style="text;html=1;align=center;verticalAlign=middle;resizable=0;points=[];autosize=1;strokeColor=none;fillColor=none;" vertex="1" parent="1">
          <mxGeometry x="95" y="1320" width="190" height="30" as="geometry" />
        </mxCell>
        <mxCell id="7vzMjG-QyfqPNBVxQbre-106" value="" style="endArrow=none;html=1;rounded=0;entryX=0;entryY=0.5;entryDx=0;entryDy=0;exitX=1;exitY=0.5;exitDx=0;exitDy=0;" edge="1" parent="1" source="7vzMjG-QyfqPNBVxQbre-103" target="7vzMjG-QyfqPNBVxQbre-100">
          <mxGeometry width="50" height="50" relative="1" as="geometry">
            <mxPoint x="300" y="1130" as="sourcePoint" />
            <mxPoint x="350" y="1080" as="targetPoint" />
          </mxGeometry>
        </mxCell>
        <mxCell id="7vzMjG-QyfqPNBVxQbre-107" value="1" style="text;html=1;align=center;verticalAlign=middle;resizable=0;points=[];autosize=1;strokeColor=none;fillColor=none;" vertex="1" parent="1">
          <mxGeometry x="495" y="898" width="30" height="30" as="geometry" />
        </mxCell>
        <mxCell id="7vzMjG-QyfqPNBVxQbre-108" value="n" style="text;html=1;align=center;verticalAlign=middle;resizable=0;points=[];autosize=1;strokeColor=none;fillColor=none;" vertex="1" parent="1">
          <mxGeometry x="505" y="968" width="30" height="30" as="geometry" />
        </mxCell>
        <mxCell id="7vzMjG-QyfqPNBVxQbre-109" value="Contact" style="rounded=0;whiteSpace=wrap;html=1;" vertex="1" parent="1">
          <mxGeometry x="660" y="1010" width="120" height="60" as="geometry" />
        </mxCell>
        <mxCell id="7vzMjG-QyfqPNBVxQbre-110" value="" style="endArrow=none;html=1;rounded=0;entryX=0.25;entryY=1;entryDx=0;entryDy=0;exitX=0.5;exitY=0;exitDx=0;exitDy=0;" edge="1" parent="1" source="7vzMjG-QyfqPNBVxQbre-67" target="7vzMjG-QyfqPNBVxQbre-109">
          <mxGeometry width="50" height="50" relative="1" as="geometry">
            <mxPoint x="440" y="1200" as="sourcePoint" />
            <mxPoint x="490" y="1150" as="targetPoint" />
          </mxGeometry>
        </mxCell>
        <mxCell id="7vzMjG-QyfqPNBVxQbre-111" value="1" style="text;html=1;align=center;verticalAlign=middle;resizable=0;points=[];autosize=1;strokeColor=none;fillColor=none;" vertex="1" parent="1">
          <mxGeometry x="475" y="1188" width="30" height="30" as="geometry" />
        </mxCell>
        <mxCell id="7vzMjG-QyfqPNBVxQbre-112" value="n" style="text;html=1;align=center;verticalAlign=middle;resizable=0;points=[];autosize=1;strokeColor=none;fillColor=none;" vertex="1" parent="1">
          <mxGeometry x="615" y="1078" width="30" height="30" as="geometry" />
        </mxCell>
        <mxCell id="7vzMjG-QyfqPNBVxQbre-113" value="Tên khách hàng" style="ellipse;whiteSpace=wrap;html=1;" vertex="1" parent="1">
          <mxGeometry x="640" y="730" width="120" height="80" as="geometry" />
        </mxCell>
        <mxCell id="7vzMjG-QyfqPNBVxQbre-114" value="Email" style="ellipse;whiteSpace=wrap;html=1;" vertex="1" parent="1">
          <mxGeometry x="790" y="790" width="120" height="80" as="geometry" />
        </mxCell>
        <mxCell id="7vzMjG-QyfqPNBVxQbre-115" value="Ngày gửi" style="ellipse;whiteSpace=wrap;html=1;" vertex="1" parent="1">
          <mxGeometry x="850" y="990" width="120" height="80" as="geometry" />
        </mxCell>
        <mxCell id="7vzMjG-QyfqPNBVxQbre-116" value="Tin nhắn" style="ellipse;whiteSpace=wrap;html=1;" vertex="1" parent="1">
          <mxGeometry x="860" y="880" width="120" height="80" as="geometry" />
        </mxCell>
        <mxCell id="7vzMjG-QyfqPNBVxQbre-117" value="" style="endArrow=none;html=1;rounded=0;exitX=0.682;exitY=0.002;exitDx=0;exitDy=0;exitPerimeter=0;entryX=0;entryY=0.5;entryDx=0;entryDy=0;" edge="1" parent="1" source="7vzMjG-QyfqPNBVxQbre-26" target="7vzMjG-QyfqPNBVxQbre-118">
          <mxGeometry width="50" height="50" relative="1" as="geometry">
            <mxPoint x="270" y="760" as="sourcePoint" />
            <mxPoint x="320" y="710" as="targetPoint" />
          </mxGeometry>
        </mxCell>
        <mxCell id="7vzMjG-QyfqPNBVxQbre-118" value="Phản hồi" style="rhombus;whiteSpace=wrap;html=1;" vertex="1" parent="1">
          <mxGeometry x="405" y="650" width="80" height="80" as="geometry" />
        </mxCell>
        <mxCell id="7vzMjG-QyfqPNBVxQbre-119" value="1" style="text;html=1;align=center;verticalAlign=middle;resizable=0;points=[];autosize=1;strokeColor=none;fillColor=none;" vertex="1" parent="1">
          <mxGeometry x="190" y="788" width="30" height="30" as="geometry" />
        </mxCell>
        <mxCell id="7vzMjG-QyfqPNBVxQbre-120" value="n" style="text;html=1;align=center;verticalAlign=middle;resizable=0;points=[];autosize=1;strokeColor=none;fillColor=none;" vertex="1" parent="1">
          <mxGeometry x="345" y="688" width="30" height="30" as="geometry" />
        </mxCell>
        <mxCell id="7vzMjG-QyfqPNBVxQbre-121" value="" style="endArrow=none;html=1;rounded=0;entryX=1;entryY=1;entryDx=0;entryDy=0;exitX=0;exitY=0;exitDx=0;exitDy=0;" edge="1" parent="1" source="7vzMjG-QyfqPNBVxQbre-109" target="7vzMjG-QyfqPNBVxQbre-118">
          <mxGeometry width="50" height="50" relative="1" as="geometry">
            <mxPoint x="540" y="750" as="sourcePoint" />
            <mxPoint x="590" y="700" as="targetPoint" />
          </mxGeometry>
        </mxCell>
        <mxCell id="7vzMjG-QyfqPNBVxQbre-122" value="1" style="text;html=1;align=center;verticalAlign=middle;resizable=0;points=[];autosize=1;strokeColor=none;fillColor=none;" vertex="1" parent="1">
          <mxGeometry x="475" y="698" width="30" height="30" as="geometry" />
        </mxCell>
        <mxCell id="7vzMjG-QyfqPNBVxQbre-123" value="n" style="text;html=1;align=center;verticalAlign=middle;resizable=0;points=[];autosize=1;strokeColor=none;fillColor=none;" vertex="1" parent="1">
          <mxGeometry x="640" y="948" width="30" height="30" as="geometry" />
        </mxCell>
        <mxCell id="7vzMjG-QyfqPNBVxQbre-124" value="" style="endArrow=none;html=1;rounded=0;entryX=0.5;entryY=1;entryDx=0;entryDy=0;exitX=0.5;exitY=0;exitDx=0;exitDy=0;" edge="1" parent="1" source="7vzMjG-QyfqPNBVxQbre-109" target="7vzMjG-QyfqPNBVxQbre-113">
          <mxGeometry width="50" height="50" relative="1" as="geometry">
            <mxPoint x="680" y="920" as="sourcePoint" />
            <mxPoint x="730" y="870" as="targetPoint" />
          </mxGeometry>
        </mxCell>
        <mxCell id="7vzMjG-QyfqPNBVxQbre-125" value="" style="endArrow=none;html=1;rounded=0;entryX=0.277;entryY=0.966;entryDx=0;entryDy=0;entryPerimeter=0;exitX=0.5;exitY=0;exitDx=0;exitDy=0;" edge="1" parent="1" source="7vzMjG-QyfqPNBVxQbre-109" target="7vzMjG-QyfqPNBVxQbre-114">
          <mxGeometry width="50" height="50" relative="1" as="geometry">
            <mxPoint x="740" y="980" as="sourcePoint" />
            <mxPoint x="790" y="930" as="targetPoint" />
          </mxGeometry>
        </mxCell>
        <mxCell id="7vzMjG-QyfqPNBVxQbre-126" value="" style="endArrow=none;html=1;rounded=0;entryX=0;entryY=0.5;entryDx=0;entryDy=0;exitX=0.5;exitY=0;exitDx=0;exitDy=0;" edge="1" parent="1" source="7vzMjG-QyfqPNBVxQbre-109" target="7vzMjG-QyfqPNBVxQbre-116">
          <mxGeometry width="50" height="50" relative="1" as="geometry">
            <mxPoint x="790" y="990" as="sourcePoint" />
            <mxPoint x="840" y="940" as="targetPoint" />
          </mxGeometry>
        </mxCell>
        <mxCell id="7vzMjG-QyfqPNBVxQbre-127" value="" style="endArrow=none;html=1;rounded=0;entryX=-0.02;entryY=0.377;entryDx=0;entryDy=0;entryPerimeter=0;exitX=0.5;exitY=0;exitDx=0;exitDy=0;" edge="1" parent="1" source="7vzMjG-QyfqPNBVxQbre-109" target="7vzMjG-QyfqPNBVxQbre-115">
          <mxGeometry width="50" height="50" relative="1" as="geometry">
            <mxPoint x="760" y="1130" as="sourcePoint" />
            <mxPoint x="810" y="1080" as="targetPoint" />
          </mxGeometry>
        </mxCell>
        <mxCell id="7vzMjG-QyfqPNBVxQbre-128" value="Tên người dùng" style="ellipse;whiteSpace=wrap;html=1;" vertex="1" parent="1">
          <mxGeometry x="317.5" y="880" width="85" height="52" as="geometry" />
        </mxCell>
        <mxCell id="7vzMjG-QyfqPNBVxQbre-129" value="Trạng thái" style="ellipse;whiteSpace=wrap;html=1;" vertex="1" parent="1">
          <mxGeometry x="255" y="930" width="85" height="52" as="geometry" />
        </mxCell>
        <mxCell id="7vzMjG-QyfqPNBVxQbre-130" value="Tổng giá" style="ellipse;whiteSpace=wrap;html=1;" vertex="1" parent="1">
          <mxGeometry x="260" y="990" width="85" height="52" as="geometry" />
        </mxCell>
        <mxCell id="7vzMjG-QyfqPNBVxQbre-131" value="" style="endArrow=none;html=1;rounded=0;entryX=1;entryY=1;entryDx=0;entryDy=0;exitX=0.25;exitY=0;exitDx=0;exitDy=0;" edge="1" parent="1" source="7vzMjG-QyfqPNBVxQbre-100" target="7vzMjG-QyfqPNBVxQbre-128">
          <mxGeometry width="50" height="50" relative="1" as="geometry">
            <mxPoint x="360" y="1170" as="sourcePoint" />
            <mxPoint x="410" y="1120" as="targetPoint" />
          </mxGeometry>
        </mxCell>
        <mxCell id="7vzMjG-QyfqPNBVxQbre-132" value="" style="endArrow=none;html=1;rounded=0;entryX=1;entryY=0.5;entryDx=0;entryDy=0;" edge="1" parent="1" target="7vzMjG-QyfqPNBVxQbre-129">
          <mxGeometry width="50" height="50" relative="1" as="geometry">
            <mxPoint x="450" y="1020" as="sourcePoint" />
            <mxPoint x="370" y="1170" as="targetPoint" />
          </mxGeometry>
        </mxCell>
        <mxCell id="7vzMjG-QyfqPNBVxQbre-133" value="" style="endArrow=none;html=1;rounded=0;entryX=1;entryY=0.5;entryDx=0;entryDy=0;exitX=0.25;exitY=0;exitDx=0;exitDy=0;" edge="1" parent="1" source="7vzMjG-QyfqPNBVxQbre-100" target="7vzMjG-QyfqPNBVxQbre-130">
          <mxGeometry width="50" height="50" relative="1" as="geometry">
            <mxPoint x="340" y="1180" as="sourcePoint" />
            <mxPoint x="390" y="1130" as="targetPoint" />
          </mxGeometry>
        </mxCell>
      </root>
    </mxGraphModel>
  </diagram>
</mxfile>
